<?xml version="1.0" standalone="no"?>
<svg
  width="16"
  height="16"
  viewBox="0 0 600 600"
  xmlns="http://www.w3.org/2000/svg"
>
  <g transform="translate(300,300)">
    <path d="M136.4,-195.1C180.5,-183.9,222.6,-152.4,240.8,-110.6C259,-68.7,253.2,-16.6,245.9,35.4C238.5,87.5,229.6,139.3,200.5,174.8C171.4,210.3,122.2,229.4,72.7,240.9C23.2,252.3,-26.6,256.2,-65.1,237.6C-103.6,219,-130.8,177.9,-160.8,140.7C-190.8,103.5,-223.6,70.2,-228.9,32.9C-234.3,-4.4,-212.2,-45.6,-196.2,-93.4C-180.3,-141.2,-170.4,-195.5,-138.7,-212.4C-107,-229.2,-53.5,-208.6,-3.7,-202.9C46.1,-197.1,92.3,-206.2,136.4,-195.1Z" fill="#abb8c3" />
  </g>
</svg>
    