<?xml version="1.0" encoding="UTF-8" standalone="no"?>
<!-- Uploaded to: SVG Repo, www.svgrepo.com, Generator: SVG Repo Mixer Tools -->
<svg 
   viewBox="0 0 600 600"
   version="1.1"
   width="14"
   height="14"
   xmlns="http://www.w3.org/2000/svg"
   xmlns:svg="http://www.w3.org/2000/svg">
  
  <path
     style="color:#000000;fill:#b8babc;stroke-linejoin:round;-inkscape-stroke:none;paint-order:stroke fill markers"
     d="M 300 0 C 221.30245 0 150.09841 8.0113158 97.068359 21.535156 C 70.553346 28.297076 48.605538 36.277916 31.677734 46.484375 C 16.579982 55.587421 3.2445893 67.928721 0.53125 85 L 0 85 L 0 90 C 0 95.160045 3.6392602 102.94345 17.03125 112.83789 C 30.423241 122.73233 52.11942 133.00486 79.691406 141.62109 C 134.83535 158.85361 213.32376 170 300 170 C 386.67624 170 465.16467 158.85361 520.30859 141.62109 C 547.8806 133.00486 569.57675 122.73233 582.96875 112.83789 C 596.36075 102.94345 600 95.160045 600 90 L 599.87305 90 C 599.19452 70.318664 584.84711 56.447884 568.32227 46.484375 C 551.39442 36.277916 529.44664 28.297076 502.93164 21.535156 C 449.90159 8.0113158 378.69755 0 300 0 z M 0 149.67969 L 0 234.10742 C 0.70499641 239.21983 4.6599347 246.30446 16.722656 255.2168 C 30.11466 265.11125 51.810798 275.38376 79.382812 284 C 134.52681 301.23251 213.01506 312.37891 299.69141 312.37891 C 386.36774 312.37891 464.85602 301.23251 520 284 C 547.57201 275.38376 569.26815 265.11125 582.66016 255.2168 C 596.05215 245.32235 599.69141 237.53895 599.69141 232.37891 L 600 232.37891 L 600 149.67969 C 581.93283 161.57337 559.1282 171.3983 532.24023 179.80078 C 471.56758 198.761 390.05399 210 300 210 C 209.94601 210 128.43244 198.761 67.759766 179.80078 C 40.871811 171.3983 18.067172 161.57337 0 149.67969 z M 600 291.79688 C 590.25148 298.2521 579.18165 304.12941 566.75 309.46875 C 556.06951 314.05598 544.44003 318.27081 531.93164 322.17969 C 471.2589 341.13992 389.74549 352.37891 299.69141 352.37891 C 209.63733 352.37891 128.12391 341.13993 67.451172 322.17969 C 40.720883 313.82647 18.016718 304.0712 0 292.27148 L 0 380 C 0 385.16005 3.6392334 392.94343 17.03125 402.83789 C 30.423267 412.73235 52.119364 423.00484 79.691406 431.62109 C 134.83545 448.85363 213.32358 460 300 460 C 386.67642 460 465.16455 448.85363 520.30859 431.62109 C 547.88068 423.00484 569.57666 412.73235 582.96875 402.83789 C 596.36074 392.94343 600 385.16005 600 380 L 600 291.79688 z M 0 439.67969 L 0 508.59375 L 0 515 L 0.53125 515 C 3.2445947 532.0713 16.579952 544.41257 31.677734 553.51562 C 48.605572 563.7221 70.553292 571.70292 97.068359 578.46484 C 150.09851 591.98873 221.30229 600 300 600 C 378.69771 600 449.90149 591.98873 502.93164 578.46484 C 529.4467 571.70292 551.3944 563.7221 568.32227 553.51562 C 583.42003 544.41257 596.7554 532.0713 599.46875 515 L 600 515 L 600 508.59375 L 600 439.67969 C 581.93278 451.57339 559.1283 461.39828 532.24023 469.80078 C 471.56747 488.76104 390.05417 500 300 500 C 209.94583 500 128.43256 488.76104 67.759766 469.80078 C 40.871757 461.39828 18.067208 451.57339 0 439.67969 z " />
</svg>