<?xml version="1.0" standalone="no"?>
<!DOCTYPE svg PUBLIC "-//W3C//DTD SVG 20010904//EN"
        "http://www.w3.org/TR/2001/REC-SVG-20010904/DTD/svg10.dtd">
<svg version="1.0" xmlns="http://www.w3.org/2000/svg"
     width="14" height="14" viewBox="0 0 1080.000000 1080.000000"
     preserveAspectRatio="xMidYMid meet">

    <g transform="translate(0.000000,1080.000000) scale(0.100000,-0.100000)"
       fill="#b8babc" stroke="none">
        <path d="M3298 9495 c-361 -50 -618 -189 -800 -436 -63 -84 -132 -247 -164
-385 -34 -150 -37 -214 -44 -1174 -7 -1071 -5 -1027 -75 -1175 -43 -89 -80
-134 -155 -183 -127 -85 -270 -112 -596 -112 l-234 0 0 -309 0 -309 288 -5
c292 -5 324 -8 442 -51 72 -27 124 -62 178 -121 60 -65 94 -131 124 -240 22
-79 22 -91 29 -1050 6 -994 7 -1016 49 -1191 100 -424 386 -689 847 -785 118
-24 408 -41 648 -37 l170 3 0 280 0 280 -280 6 c-250 5 -288 8 -355 28 -208
62 -332 188 -386 392 -16 57 -18 160 -24 994 -6 839 -8 939 -24 1025 -63 331
-221 539 -523 687 l-113 55 0 43 0 42 66 28 c83 35 224 124 284 177 157 143
240 299 286 538 16 86 18 186 24 1025 l6 930 23 75 c49 163 137 271 273 335
121 58 181 67 481 72 l267 5 0 279 0 279 -307 -1 c-195 -1 -344 -6 -405 -14z"/>
        <path d="M6800 9230 l0 -280 214 0 c118 0 250 -5 293 -11 280 -38 438 -165
505 -406 22 -77 22 -92 28 -1003 6 -834 8 -934 24 -1020 66 -345 226 -550 548
-702 l88 -42 0 -48 c0 -29 -4 -48 -11 -48 -9 0 -143 -62 -211 -98 -4 -2 -42
30 -86 70 -256 240 -622 439 -972 528 -195 50 -314 64 -555 64 -257 1 -353
-11 -580 -69 -477 -123 -918 -413 -1220 -805 -127 -165 -279 -445 -345 -635
-159 -457 -167 -973 -24 -1426 190 -598 601 -1079 1159 -1354 308 -152 586
-222 925 -232 278 -8 461 14 719 89 151 43 227 75 499 209 l242 120 336 -318
c185 -175 340 -318 344 -318 4 0 98 96 209 214 180 191 200 216 187 230 -8 9
-163 155 -344 326 l-329 309 47 66 c177 243 311 535 379 830 70 301 70 709 0
1010 -44 191 -114 375 -210 558 l-59 113 29 43 c67 97 183 164 342 196 78 17
136 20 347 20 l252 0 0 309 0 309 -272 5 c-236 4 -284 7 -355 25 -179 46 -286
127 -353 267 -75 156 -73 114 -80 1210 -8 1074 -6 1041 -70 1242 -113 353
-369 585 -755 683 -150 38 -289 50 -596 50 l-289 0 0 -280z m100 -3604 c377
-62 683 -217 941 -477 255 -256 412 -568 470 -934 17 -103 17 -388 0 -485
-110 -645 -526 -1139 -1131 -1341 -281 -94 -628 -108 -915 -37 -297 73 -547
213 -774 432 -455 441 -616 1109 -415 1715 175 526 619 948 1146 1087 201 53
493 70 678 40z"/>
    </g>
</svg>
