<?xml version="1.0" encoding="iso-8859-1"?>
<!-- Uploaded to: SVG Repo, www.svgrepo.com, Generator: SVG Repo Mixer Tools -->
<svg fill="#b8babc" height="16" width="16" version="1.1" id="Layer_1" xmlns="http://www.w3.org/2000/svg" xmlns:xlink="http://www.w3.org/1999/xlink"
	 viewBox="0 0 511.936 511.936" xml:space="preserve">
<g>
	<g>
		<g>
			<path d="M255.959,128c11.776,0,21.333-9.557,21.333-21.333s-9.557-21.333-21.333-21.333s-21.333,9.557-21.333,21.333
				S244.183,128,255.959,128z"/>
			<path d="M383.968,0h-256C80.907,0,42.635,38.272,42.635,85.333v213.333c0,47.061,38.272,85.333,85.333,85.333h64l0.085,92.075
				c0,14.571,8.683,27.584,22.165,33.173c4.331,1.792,8.875,2.688,13.397,2.688c9.557,0,19.157-3.968,27.051-11.968L350.475,384
				h33.493c47.061,0,85.333-38.272,85.333-85.333V85.333C469.301,38.272,431.029,0,383.968,0z M426.635,298.667
				c0,23.531-19.157,42.667-42.667,42.667h-36.629c-9.621,0-18.645,3.755-26.752,12.011l-85.888,103.979l-0.064-80.085
				c0-19.797-16.107-35.904-35.904-35.904h-70.763c-23.531,0-42.667-19.136-42.667-42.667V85.333
				c0-23.531,19.136-42.667,42.667-42.667h256c23.509,0,42.667,19.136,42.667,42.667V298.667z"/>
			<path d="M298.626,256h-21.333v-85.333c0-11.776-9.536-21.333-21.333-21.333h-21.333c-11.797,0-21.333,9.557-21.333,21.333
				S222.829,192,234.626,192v64h-21.333c-11.797,0-21.333,9.557-21.333,21.333s9.536,21.333,21.333,21.333h85.333
				c11.797,0,21.333-9.557,21.333-21.333S310.423,256,298.626,256z"/>
		</g>
	</g>
</g>
</svg>