<?xml version="1.0" encoding="utf-8"?>
<svg fill="#b8babc" width="12" height="12" viewBox="0 0 32 32" version="1.1" xmlns="http://www.w3.org/2000/svg">

<path d="M0 26.016q0 2.496 1.76 4.224t4.256 1.76h20q2.464 0 4.224-1.76t1.76-4.224v-16q0-2.496-1.76-4.256t-4.224-1.76h-6.368q-0.64-1.76-2.176-2.88t-3.456-1.12h-8q-2.496 0-4.256 1.76t-1.76 4.256v20zM4 26.016v-20q0-0.832 0.576-1.408t1.44-0.608h8q0.8 0 1.408 0.608t0.576 1.408v1.984h10.016q0.8 0 1.408 0.608t0.576 1.408v16q0 0.832-0.576 1.408t-1.408 0.576h-20q-0.832 0-1.44-0.576t-0.576-1.408z"></path>
</svg>