<?xml version="1.0" encoding="utf-8"?>
<svg fill="#b8babc" width="16" height="16" viewBox="0 0 32 32" version="1.1" xmlns="http://www.w3.org/2000/svg">
    <title>window with lupe</title>
    <path d="M0 26.016q0 2.496 1.76 4.224t4.256 1.76h20q2.464 0 4.224-1.76t1.76-4.224v-20q0-2.496-1.76-4.256t-4.224-1.76h-20q-2.496 0-4.256 1.76t-1.76 4.256v20zM4 26.016v-20q0-0.832 0.576-1.408t1.44-0.608h20q0.8 0 1.408 0.608t0.576 1.408v20q0 0.832-0.576 1.408t-1.408 0.576h-20q-0.832 0-1.44-0.576t-0.576-1.408z"></path>
    <path d="M19.5 13a6.5 6.5 0 1 0-1.912 4.588l5.4 5.4 1.912-1.912-5.4-5.4A6.478 6.478 0 0 0 19.5 13zm-10 0a3.5 3.5 0 1 1 7 0 3.5 3.5 0 0 1-7 0z"
          fill="#b8babc" transform="translate(1 1)"></path>
</svg>
